<svg id="visual" viewBox="0 0 900 600" width="900" height="600" xmlns="http://www.w3.org/2000/svg" xmlns:xlink="http://www.w3.org/1999/xlink" version="1.1"><g stroke-width="1" stroke-linejoin="bevel"><path d="M466 334.9L465 413.6L532 408.6Z" fill="#00101c" stroke="#00101c"></path><path d="M532 408.6L544 320.9L466 334.9Z" fill="#19435d" stroke="#19435d"></path><path d="M466 334.9L367 363.9L465 413.6Z" fill="#19435d" stroke="#19435d"></path><path d="M544 320.9L519 244.1L466 334.9Z" fill="#19435d" stroke="#19435d"></path><path d="M466 334.9L441 249.1L367 363.9Z" fill="#205a7a" stroke="#205a7a"></path><path d="M519 244.1L441 249.1L466 334.9Z" fill="#0c2435" stroke="#0c2435"></path><path d="M363 436.6L434 497.3L465 413.6Z" fill="#297ea6" stroke="#297ea6"></path><path d="M465 413.6L547 524.3L532 408.6Z" fill="#297ea6" stroke="#297ea6"></path><path d="M547 524.3L635 415.6L532 408.6Z" fill="#15384f" stroke="#15384f"></path><path d="M532 408.6L635 415.6L544 320.9Z" fill="#246688" stroke="#246688"></path><path d="M544 320.9L610 262.1L519 244.1Z" fill="#297ea6" stroke="#297ea6"></path><path d="M367 363.9L363 436.6L465 413.6Z" fill="#205a7a" stroke="#205a7a"></path><path d="M635 415.6L642 323.9L544 320.9Z" fill="#1d4e6b" stroke="#1d4e6b"></path><path d="M434 497.3L547 524.3L465 413.6Z" fill="#00101c" stroke="#00101c"></path><path d="M642 323.9L610 262.1L544 320.9Z" fill="#00101c" stroke="#00101c"></path><path d="M363 436.6L373 518.3L434 497.3Z" fill="#277297" stroke="#277297"></path><path d="M434 497.3L446 600L547 524.3Z" fill="#00101c" stroke="#00101c"></path><path d="M610 262.1L543 190.4L519 244.1Z" fill="#277297" stroke="#277297"></path><path d="M519 244.1L462 184.4L441 249.1Z" fill="#081a28" stroke="#081a28"></path><path d="M543 190.4L462 184.4L519 244.1Z" fill="#205a7a" stroke="#205a7a"></path><path d="M441 249.1L339 250.1L367 363.9Z" fill="#15384f" stroke="#15384f"></path><path d="M370 180.4L339 250.1L441 249.1Z" fill="#00101c" stroke="#00101c"></path><path d="M367 363.9L250 416.6L363 436.6Z" fill="#246688" stroke="#246688"></path><path d="M363 436.6L274 531.3L373 518.3Z" fill="#277297" stroke="#277297"></path><path d="M620 600L646 533.3L547 524.3Z" fill="#277297" stroke="#277297"></path><path d="M547 524.3L646 533.3L635 415.6Z" fill="#00101c" stroke="#00101c"></path><path d="M635 415.6L731 325.9L642 323.9Z" fill="#15384f" stroke="#15384f"></path><path d="M373 518.3L446 600L434 497.3Z" fill="#112e42" stroke="#112e42"></path><path d="M462 184.4L370 180.4L441 249.1Z" fill="#277297" stroke="#277297"></path><path d="M446 600L556 600L547 524.3Z" fill="#277297" stroke="#277297"></path><path d="M710 507.3L723 430.6L635 415.6Z" fill="#19435d" stroke="#19435d"></path><path d="M642 323.9L721 253.1L610 262.1Z" fill="#112e42" stroke="#112e42"></path><path d="M266 257.1L262 345.9L339 250.1Z" fill="#19435d" stroke="#19435d"></path><path d="M339 250.1L262 345.9L367 363.9Z" fill="#277297" stroke="#277297"></path><path d="M723 430.6L731 325.9L635 415.6Z" fill="#277297" stroke="#277297"></path><path d="M610 262.1L610 159.4L543 190.4Z" fill="#277297" stroke="#277297"></path><path d="M702 156.4L610 159.4L610 262.1Z" fill="#19435d" stroke="#19435d"></path><path d="M550 89.7L449 101.7L462 184.4Z" fill="#246688" stroke="#246688"></path><path d="M462 184.4L449 101.7L370 180.4Z" fill="#081a28" stroke="#081a28"></path><path d="M262 345.9L250 416.6L367 363.9Z" fill="#112e42" stroke="#112e42"></path><path d="M373 518.3L345 600L446 600Z" fill="#297ea6" stroke="#297ea6"></path><path d="M646 533.3L710 507.3L635 415.6Z" fill="#112e42" stroke="#112e42"></path><path d="M708 600L710 507.3L646 533.3Z" fill="#0c2435" stroke="#0c2435"></path><path d="M731 325.9L721 253.1L642 323.9Z" fill="#0c2435" stroke="#0c2435"></path><path d="M556 600L620 600L547 524.3Z" fill="#112e42" stroke="#112e42"></path><path d="M289 174.4L266 257.1L339 250.1Z" fill="#246688" stroke="#246688"></path><path d="M169 359.9L184 433.6L250 416.6Z" fill="#205a7a" stroke="#205a7a"></path><path d="M274 531.3L345 600L373 518.3Z" fill="#297ea6" stroke="#297ea6"></path><path d="M250 416.6L274 531.3L363 436.6Z" fill="#1d4e6b" stroke="#1d4e6b"></path><path d="M550 89.7L462 184.4L543 190.4Z" fill="#277297" stroke="#277297"></path><path d="M370 180.4L289 174.4L339 250.1Z" fill="#246688" stroke="#246688"></path><path d="M351 83.7L289 174.4L370 180.4Z" fill="#297ea6" stroke="#297ea6"></path><path d="M610 159.4L550 89.7L543 190.4Z" fill="#1d4e6b" stroke="#1d4e6b"></path><path d="M622 69.7L550 89.7L610 159.4Z" fill="#19435d" stroke="#19435d"></path><path d="M721 253.1L702 156.4L610 262.1Z" fill="#00101c" stroke="#00101c"></path><path d="M620 600L708 600L646 533.3Z" fill="#277297" stroke="#277297"></path><path d="M806 412.6L807 357.9L723 430.6Z" fill="#0c2435" stroke="#0c2435"></path><path d="M731 325.9L800 256.1L721 253.1Z" fill="#1d4e6b" stroke="#1d4e6b"></path><path d="M721 253.1L788 163.4L702 156.4Z" fill="#15384f" stroke="#15384f"></path><path d="M723 430.6L807 357.9L731 325.9Z" fill="#246688" stroke="#246688"></path><path d="M806 412.6L723 430.6L807 511.3Z" fill="#297ea6" stroke="#297ea6"></path><path d="M807 511.3L723 430.6L710 507.3Z" fill="#1d4e6b" stroke="#1d4e6b"></path><path d="M169 359.9L250 416.6L262 345.9Z" fill="#0c2435" stroke="#0c2435"></path><path d="M250 416.6L194 508.3L274 531.3Z" fill="#297ea6" stroke="#297ea6"></path><path d="M169 359.9L262 345.9L187 246.1Z" fill="#00101c" stroke="#00101c"></path><path d="M194 508.3L264 600L274 531.3Z" fill="#15384f" stroke="#15384f"></path><path d="M274 531.3L264 600L345 600Z" fill="#205a7a" stroke="#205a7a"></path><path d="M449 101.7L351 83.7L370 180.4Z" fill="#19435d" stroke="#19435d"></path><path d="M463 0L351 83.7L449 101.7Z" fill="#1d4e6b" stroke="#1d4e6b"></path><path d="M807 357.9L800 256.1L731 325.9Z" fill="#297ea6" stroke="#297ea6"></path><path d="M187 246.1L262 345.9L266 257.1Z" fill="#00101c" stroke="#00101c"></path><path d="M719 68.7L622 69.7L702 156.4Z" fill="#277297" stroke="#277297"></path><path d="M702 156.4L622 69.7L610 159.4Z" fill="#0c2435" stroke="#0c2435"></path><path d="M550 89.7L519 0L449 101.7Z" fill="#297ea6" stroke="#297ea6"></path><path d="M87 435.6L194 508.3L184 433.6Z" fill="#112e42" stroke="#112e42"></path><path d="M184 433.6L194 508.3L250 416.6Z" fill="#081a28" stroke="#081a28"></path><path d="M289 174.4L187 246.1L266 257.1Z" fill="#15384f" stroke="#15384f"></path><path d="M161 175.4L187 246.1L289 174.4Z" fill="#112e42" stroke="#112e42"></path><path d="M804 600L807 511.3L710 507.3Z" fill="#246688" stroke="#246688"></path><path d="M900 424.6L900 337.9L807 357.9Z" fill="#112e42" stroke="#112e42"></path><path d="M800 256.1L788 163.4L721 253.1Z" fill="#00101c" stroke="#00101c"></path><path d="M351 83.7L255 97.7L289 174.4Z" fill="#1d4e6b" stroke="#1d4e6b"></path><path d="M630 0L519 0L622 69.7Z" fill="#081a28" stroke="#081a28"></path><path d="M622 69.7L519 0L550 89.7Z" fill="#15384f" stroke="#15384f"></path><path d="M351 83.7L291 0L255 97.7Z" fill="#246688" stroke="#246688"></path><path d="M519 0L463 0L449 101.7Z" fill="#1d4e6b" stroke="#1d4e6b"></path><path d="M788 163.4L719 68.7L702 156.4Z" fill="#205a7a" stroke="#205a7a"></path><path d="M708 600L804 600L710 507.3Z" fill="#277297" stroke="#277297"></path><path d="M255 97.7L161 175.4L289 174.4Z" fill="#112e42" stroke="#112e42"></path><path d="M187 246.1L106 338.9L169 359.9Z" fill="#15384f" stroke="#15384f"></path><path d="M91 266.1L106 338.9L187 246.1Z" fill="#00101c" stroke="#00101c"></path><path d="M169 359.9L87 435.6L184 433.6Z" fill="#00101c" stroke="#00101c"></path><path d="M194 508.3L169 600L264 600Z" fill="#1d4e6b" stroke="#1d4e6b"></path><path d="M105 600L169 600L194 508.3Z" fill="#112e42" stroke="#112e42"></path><path d="M701 0L630 0L622 69.7Z" fill="#277297" stroke="#277297"></path><path d="M463 0L354 0L351 83.7Z" fill="#0c2435" stroke="#0c2435"></path><path d="M255 97.7L159 106.7L161 175.4Z" fill="#0c2435" stroke="#0c2435"></path><path d="M807 357.9L900 273.1L800 256.1Z" fill="#19435d" stroke="#19435d"></path><path d="M800 256.1L900 178.4L788 163.4Z" fill="#081a28" stroke="#081a28"></path><path d="M900 424.6L807 357.9L806 412.6Z" fill="#1d4e6b" stroke="#1d4e6b"></path><path d="M900 424.6L806 412.6L900 495.3Z" fill="#0c2435" stroke="#0c2435"></path><path d="M900 495.3L806 412.6L807 511.3Z" fill="#277297" stroke="#277297"></path><path d="M106 338.9L87 435.6L169 359.9Z" fill="#112e42" stroke="#112e42"></path><path d="M900 337.9L900 273.1L807 357.9Z" fill="#081a28" stroke="#081a28"></path><path d="M788 163.4L818 94.7L719 68.7Z" fill="#15384f" stroke="#15384f"></path><path d="M161 175.4L91 266.1L187 246.1Z" fill="#1d4e6b" stroke="#1d4e6b"></path><path d="M106 338.9L0 363.9L87 435.6Z" fill="#19435d" stroke="#19435d"></path><path d="M900 600L900 495.3L807 511.3Z" fill="#0c2435" stroke="#0c2435"></path><path d="M900 178.4L818 94.7L788 163.4Z" fill="#297ea6" stroke="#297ea6"></path><path d="M719 68.7L701 0L622 69.7Z" fill="#0c2435" stroke="#0c2435"></path><path d="M354 0L291 0L351 83.7Z" fill="#19435d" stroke="#19435d"></path><path d="M161 175.4L91 177.4L91 266.1Z" fill="#00101c" stroke="#00101c"></path><path d="M805 0L701 0L719 68.7Z" fill="#297ea6" stroke="#297ea6"></path><path d="M199 0L159 106.7L255 97.7Z" fill="#00101c" stroke="#00101c"></path><path d="M900 273.1L900 178.4L800 256.1Z" fill="#112e42" stroke="#112e42"></path><path d="M159 106.7L91 177.4L161 175.4Z" fill="#112e42" stroke="#112e42"></path><path d="M0 495.3L68 535.3L87 435.6Z" fill="#246688" stroke="#246688"></path><path d="M68 535.3L105 600L194 508.3Z" fill="#246688" stroke="#246688"></path><path d="M0 363.9L106 338.9L91 266.1Z" fill="#00101c" stroke="#00101c"></path><path d="M87 435.6L68 535.3L194 508.3Z" fill="#205a7a" stroke="#205a7a"></path><path d="M804 600L900 600L807 511.3Z" fill="#297ea6" stroke="#297ea6"></path><path d="M291 0L199 0L255 97.7Z" fill="#0c2435" stroke="#0c2435"></path><path d="M159 106.7L111 81.7L91 177.4Z" fill="#15384f" stroke="#15384f"></path><path d="M199 0L111 81.7L159 106.7Z" fill="#19435d" stroke="#19435d"></path><path d="M900 0L805 0L818 94.7Z" fill="#277297" stroke="#277297"></path><path d="M818 94.7L805 0L719 68.7Z" fill="#205a7a" stroke="#205a7a"></path><path d="M900 178.4L900 94.7L818 94.7Z" fill="#112e42" stroke="#112e42"></path><path d="M0 244.1L91 266.1L91 177.4Z" fill="#246688" stroke="#246688"></path><path d="M0 244.1L0 363.9L91 266.1Z" fill="#081a28" stroke="#081a28"></path><path d="M0 363.9L0 411.6L87 435.6Z" fill="#0c2435" stroke="#0c2435"></path><path d="M0 411.6L0 495.3L87 435.6Z" fill="#00101c" stroke="#00101c"></path><path d="M68 535.3L0 600L105 600Z" fill="#19435d" stroke="#19435d"></path><path d="M0 182.4L0 244.1L91 177.4Z" fill="#1d4e6b" stroke="#1d4e6b"></path><path d="M0 86.7L0 182.4L91 177.4Z" fill="#205a7a" stroke="#205a7a"></path><path d="M0 86.7L91 177.4L111 81.7Z" fill="#00101c" stroke="#00101c"></path><path d="M0 495.3L0 600L68 535.3Z" fill="#277297" stroke="#277297"></path><path d="M900 94.7L900 0L818 94.7Z" fill="#15384f" stroke="#15384f"></path><path d="M199 0L88 0L111 81.7Z" fill="#15384f" stroke="#15384f"></path><path d="M88 0L0 86.7L111 81.7Z" fill="#246688" stroke="#246688"></path><path d="M88 0L0 0L0 86.7Z" fill="#1d4e6b" stroke="#1d4e6b"></path></g></svg>